<?xml version="1.0" encoding="UTF-8" standalone="no"?>
<!-- Created with Inkscape (http://www.inkscape.org/) -->

<svg
   version="1.1"
   id="svg193"
   width="220"
   height="220"
   viewBox="0 0 220 220"
   sodipodi:docname="logo.svg"
   inkscape:version="1.2-alpha1 (unknown)"
   xmlns:inkscape="http://www.inkscape.org/namespaces/inkscape"
   xmlns:sodipodi="http://sodipodi.sourceforge.net/DTD/sodipodi-0.dtd"
   xmlns="http://www.w3.org/2000/svg"
   xmlns:svg="http://www.w3.org/2000/svg">
  <defs
     id="defs197" />
  <sodipodi:namedview
     id="namedview195"
     pagecolor="#ffffff"
     bordercolor="#666666"
     borderopacity="1.0"
     inkscape:showpageshadow="2"
     inkscape:pageopacity="0.0"
     inkscape:pagecheckerboard="0"
     inkscape:deskcolor="#d1d1d1"
     showgrid="false"
     inkscape:zoom="2.2020528"
     inkscape:cx="228.42322"
     inkscape:cy="149.40605"
     inkscape:current-layer="g199"
     inkscape:window-width="1920"
     inkscape:window-height="1009"
     inkscape:window-x="1912"
     inkscape:window-y="-8"
     inkscape:window-maximized="1"
     inkscape:pageshadow="2" />
  <g
     inkscape:groupmode="layer"
     inkscape:label="Image"
     id="g199"
     inkscape:power="50"
     inkscape:feed="50"
     inkscape:engrave="0">
    <path
       style="fill:#ffffff;stroke:none;stroke-width:1;stroke-linecap:butt;stroke-linejoin:miter;stroke-dasharray:none;stroke-opacity:1"
       d="m 194.68802,157.84977 c 0.30609,-1.41959 0.19608,-30.55797 0.29401,-45.83695 0.0371,-5.79031 -5.32155,-10.50557 -10.29052,-10.46693 l -37.81034,0.29401 c -14.92772,2.36053 -12.06623,25.51296 -0.11761,27.4022 l 20.99268,0.23522 0.17641,15.17118 c 0,0 -14.73219,7.55624 -22.63916,7.17396 -9.17496,-0.44358 -18.41585,-4.7885 -25.3441,-10.81975 -5.93544,-5.16698 -10.33953,-12.57524 -12.17222,-20.22824 -2.1693,-9.05862 -1.63166,-19.29472 1.9993,-27.872635 3.17642,-7.50408 9.40231,-13.87208 16.28843,-18.22894 5.97501,-3.78038 13.28279,-6.322394 20.34585,-5.997902 9.79095,0.449818 17.14386,2.572452 27.32266,10.865432 4.80591,3.91552 13.49593,2.08171 17.39245,-3.71718 3.53761,-5.26475 3.37702,-12.526694 0.79842,-15.733492 -5.41882,-6.738945 -16.29403,-12.715449 -25.84773,-16.193668 -7.00615,-2.550735 -14.71031,-3.528227 -22.15351,-3.090964 -9.96542,0.585435 -20.06597,3.073219 -28.9719,7.582832 -6.91233,3.500128 -13.04757,8.727425 -18.052528,14.64195 -6.03855,7.135962 -10.90142,15.522062 -13.81871,24.403252 -3.12974,9.52798 -4.56761,19.891155 -3.58698,29.871935 0.95157,9.68502 4.08391,19.38922 9.05566,27.75503 5.74489,9.66674 13.589778,18.6302 23.168388,24.52085 9.63781,5.92706 21.23095,9.21197 32.53604,9.67277 9.88694,0.403 19.98976,-2.13435 29.04869,-6.11552 8.02246,-3.52567 21.08023,-13.86886 21.38632,-15.28845 z"
       id="path365"
       sodipodi:nodetypes="zssccccaaaaaasssaaaaaaaaaaz" />
    <g
       id="g838"
       transform="matrix(0.15597665,0,0,0.15597665,89.150042,71.301675)"
       style="fill:#ffffff;stroke:none;stroke-width:6.41122;stroke-dasharray:none">
      <path
         style="fill:#ffffff;stroke:none;stroke-width:6.41122;stroke-linecap:butt;stroke-linejoin:miter;stroke-dasharray:none;stroke-opacity:1"
         d="m -309.72383,-187.21375 183.70036,106.063373 C -76.031155,-157.03891 -14.724117,-223.52425 67.632963,-273.74426 L -38.50924,-457.12929 c -119.14367,76.15341 -207.94382,165.82565 -271.21459,269.91554 z"
         id="path454"
         sodipodi:nodetypes="ccccc"
         inkscape:transform-center-x="48.219283"
         inkscape:transform-center-y="-52.159993" />
      <path
         style="fill:#ffffff;stroke:none;stroke-width:6.41122;stroke-linecap:butt;stroke-linejoin:miter;stroke-dasharray:none;stroke-opacity:1"
         d="m -430.43479,219.58889 211.4309,0.69126 c 6.27956,-90.65792 24.34899,-178.577149 71.42742,-262.769569 L -331.07854,-149.83571 c -70.11329,134.549996 -95.39783,247.702312 -99.35625,369.4246 z"
         id="path456"
         sodipodi:nodetypes="ccccc"
         inkscape:transform-center-x="65.771113"
         inkscape:transform-center-y="-23.546191" />
      <path
         style="fill:#ffffff;stroke:none;stroke-width:6.41122;stroke-linecap:butt;stroke-linejoin:miter;stroke-dasharray:none;stroke-opacity:1"
         d="M -331.58753,632.58009 -148.5233,527.02612 c -41.69904,-80.7434 -67.7206,-165.67856 -71.19307,-262.07707 l -211.1711,-1.12583 c 8.31093,141.32743 39.69429,262.75145 99.29994,368.75687 z"
         id="path458"
         sodipodi:nodetypes="ccccc" />
      <path
         style="fill:#ffffff;stroke:none;stroke-width:6.41122;stroke-linecap:butt;stroke-linejoin:miter;stroke-dasharray:none;stroke-opacity:1"
         d="M -37.57239,940.32125 66.561194,758.27589 C -9.7548081,708.93874 -74.13911,645.8942 -125.06617,563.97255 L -308.96765,671.2757 c 75.94682,117.97362 165.47574,205.93433 271.39526,269.04555 z"
         id="path460"
         sodipodi:nodetypes="ccccc" />
    </g>
  </g>
</svg>
