<?xml version="1.0" encoding="UTF-8" standalone="no"?>
<svg
   x="0.0000mm"
   y="0.0000mm"
   width="43.3920mm"
   height="43.3920mm"
   viewBox="0.0000 0.0000 43.3920 43.3920"
   version="1.1"
   shape-rendering="crispEdges"
   id="svg10293"
   sodipodi:docname="barcodeWIFIlocal.svg"
   inkscape:version="1.2-alpha1 (unknown)"
   xmlns:inkscape="http://www.inkscape.org/namespaces/inkscape"
   xmlns:sodipodi="http://sodipodi.sourceforge.net/DTD/sodipodi-0.dtd"
   xmlns="http://www.w3.org/2000/svg"
   xmlns:svg="http://www.w3.org/2000/svg">
  <defs
     id="defs10297" />
  <sodipodi:namedview
     id="namedview10295"
     pagecolor="#ffffff"
     bordercolor="#666666"
     borderopacity="1.0"
     inkscape:pageshadow="2"
     inkscape:pageopacity="0.0"
     inkscape:pagecheckerboard="0"
     inkscape:deskcolor="#d1d1d1"
     inkscape:document-units="mm"
     showgrid="false"
     inkscape:zoom="2.8284271"
     inkscape:cx="85.736697"
     inkscape:cy="78.842406"
     inkscape:window-width="1920"
     inkscape:window-height="1009"
     inkscape:window-x="-8"
     inkscape:window-y="-8"
     inkscape:window-maximized="1"
     inkscape:current-layer="svg10293" />
  <title
     id="title8493">TBarCode - 11.15.0.16817</title>
  <desc
     id="desc8495">BarCode licensed to MEM:TEC-IT Datenverarbeitung GmbH Internal License</desc>
  <path
     id="rect8505"
     style="fill:#000000"
     d="M 0,0 V 1.0583333 2.1166667 3.175 4.2333333 5.2916667 6.35 7.4083333 H 1.0583333 2.1166667 3.175 4.2333333 5.2916667 6.35 7.4083333 V 6.35 5.2916667 4.2333333 3.175 2.1166667 1.0583333 0 H 6.35 5.2916667 4.2333333 3.175 2.1166667 1.0583333 Z m 10.583333,0 v 1.0583333 h 1.058334 V 0 Z m 1.058334,1.0583333 V 2.1166667 H 10.583333 V 1.0583333 H 9.525 8.4666667 V 2.1166667 H 9.525 V 3.175 H 8.4666667 V 4.2333333 H 9.525 V 5.2916667 H 8.4666667 V 6.35 7.4083333 H 9.525 V 6.35 h 1.058333 V 5.2916667 4.2333333 h 1.058334 V 3.175 H 12.7 V 2.1166667 h 1.058333 V 1.0583333 0 H 12.7 V 1.0583333 Z M 10.583333,6.35 V 7.4083333 H 9.525 V 8.4666667 H 10.583333 11.641667 12.7 13.758333 V 7.4083333 6.35 H 12.7 V 7.4083333 H 11.641667 V 6.35 Z m 1.058334,0 H 12.7 V 5.2916667 H 11.641667 Z M 12.7,5.2916667 h 1.058333 V 6.35 h 1.058334 V 7.4083333 8.4666667 H 13.758333 V 9.525 H 12.7 v 1.058333 h 1.058333 1.058334 v 1.058334 H 15.875 V 12.7 h 1.058333 v -1.058333 h 1.058334 V 10.583333 H 19.05 20.108333 21.166667 22.225 V 9.525 h 1.058333 1.058334 V 8.4666667 H 25.4 V 7.4083333 H 24.341667 V 6.35 5.2916667 H 23.283333 22.225 V 4.2333333 H 21.166667 20.108333 19.05 V 5.2916667 6.35 7.4083333 h 1.058333 V 6.35 5.2916667 h 1.058334 V 6.35 7.4083333 H 22.225 V 6.35 h 1.058333 V 7.4083333 H 22.225 V 8.4666667 H 21.166667 V 9.525 H 20.108333 19.05 V 8.4666667 H 17.991667 16.933333 15.875 V 7.4083333 6.35 h 1.058333 V 5.2916667 H 15.875 14.816667 V 4.2333333 H 15.875 16.933333 V 3.175 H 15.875 V 2.1166667 H 14.816667 V 3.175 H 13.758333 V 4.2333333 H 12.7 Z m 3.175,-3.175 h 1.058333 V 1.0583333 H 15.875 Z m 1.058333,-1.0583334 h 1.058334 V 0 h -1.058334 z m 0,3.175 v 1.0583334 h 1.058334 V 4.2333333 Z m 1.058334,0 H 19.05 V 3.175 H 17.991667 Z M 16.933333,6.35 v 1.0583333 h 1.058334 V 6.35 Z m 4.233334,2.1166667 V 7.4083333 h -1.058334 v 1.0583334 z m 3.175,-3.175 H 25.4 V 4.2333333 h 1.058333 V 5.2916667 H 25.4 V 6.35 7.4083333 h 1.058333 V 6.35 h 1.058334 V 7.4083333 H 28.575 V 6.35 h 1.058333 V 5.2916667 H 28.575 27.516667 V 4.2333333 H 28.575 29.633333 V 3.175 H 28.575 27.516667 26.458333 25.4 V 2.1166667 H 24.341667 23.283333 V 1.0583333 H 22.225 V 0 H 21.166667 20.108333 19.05 v 1.0583333 1.0583334 h 1.058333 V 1.0583333 h 1.058334 V 2.1166667 3.175 H 22.225 23.283333 24.341667 V 4.2333333 Z M 25.4,2.1166667 h 1.058333 1.058334 1.058333 1.058333 V 1.0583333 H 28.575 27.516667 V 0 H 26.458333 25.4 24.341667 V 1.0583333 H 25.4 Z m 0,6.35 V 9.525 H 26.458333 27.516667 28.575 V 8.4666667 H 27.516667 26.458333 Z M 25.4,9.525 h -1.058333 v 1.058333 H 25.4 Z m -1.058333,1.058333 H 23.283333 22.225 v 1.058334 H 21.166667 20.108333 19.05 V 12.7 h -1.058333 v 1.058333 h -1.058334 v 1.058334 H 15.875 V 15.875 h -1.058333 v 1.058333 H 15.875 v 1.058334 h 1.058333 V 16.933333 15.875 h 1.058334 V 14.816667 H 19.05 20.108333 21.166667 V 15.875 H 20.108333 19.05 v 1.058333 h -1.058333 v 1.058334 H 16.933333 V 19.05 H 15.875 v 1.058333 1.058334 H 14.816667 13.758333 V 22.225 H 12.7 v 1.058333 h 1.058333 1.058334 V 22.225 H 15.875 16.933333 v -1.058333 h 1.058334 V 20.108333 19.05 H 19.05 h 1.058333 1.058334 v 1.058333 H 22.225 V 19.05 h 1.058333 v -1.058333 h 1.058334 V 19.05 H 25.4 v -1.058333 h 1.058333 V 19.05 h 1.058334 V 17.991667 H 28.575 29.633333 V 16.933333 H 28.575 V 15.875 h -1.058333 v 1.058333 H 26.458333 25.4 24.341667 23.283333 V 15.875 H 22.225 v -1.058333 h 1.058333 V 15.875 h 1.058334 V 14.816667 H 25.4 v -1.058334 h 1.058333 v 1.058334 H 27.516667 28.575 v -1.058334 h 1.058333 V 12.7 11.641667 10.583333 H 28.575 27.516667 V 11.641667 12.7 H 26.458333 25.4 V 11.641667 H 24.341667 Z M 28.575,14.816667 V 15.875 h 1.058333 V 14.816667 Z M 26.458333,19.05 H 25.4 v 1.058333 h -1.058333 v 1.058334 H 25.4 V 22.225 h -1.058333 v 1.058333 H 25.4 26.458333 v 1.058334 h 1.058334 V 25.4 H 28.575 v -1.058333 h 1.058333 V 23.283333 H 28.575 27.516667 V 22.225 H 28.575 V 21.166667 H 27.516667 26.458333 V 20.108333 Z M 28.575,21.166667 h 1.058333 V 20.108333 19.05 H 28.575 v 1.058333 z m 0,4.233333 v 1.058333 h 1.058333 V 25.4 Z m -1.058333,0 H 26.458333 V 24.341667 H 25.4 V 25.4 H 24.341667 V 24.341667 H 23.283333 V 23.283333 22.225 H 22.225 21.166667 20.108333 19.05 V 21.166667 H 17.991667 V 22.225 h -1.058334 v 1.058333 h 1.058334 v 1.058334 H 19.05 v -1.058334 h 1.058333 1.058334 1.058333 v 1.058334 H 21.166667 V 25.4 H 22.225 v 1.058333 H 21.166667 V 25.4 h -1.058334 v 1.058333 1.058334 h 1.058334 V 28.575 29.633333 H 22.225 23.283333 24.341667 25.4 26.458333 V 28.575 27.516667 H 25.4 V 28.575 H 24.341667 V 27.516667 H 25.4 v -1.058334 h 1.058333 1.058334 z M 16.933333,23.283333 H 15.875 14.816667 V 24.341667 25.4 H 13.758333 V 24.341667 H 12.7 V 25.4 26.458333 h 1.058333 V 27.516667 28.575 h 1.058334 v 1.058333 H 15.875 16.933333 17.991667 V 28.575 27.516667 26.458333 h -1.058334 v 1.058334 H 15.875 v -1.058334 h 1.058333 V 25.4 H 15.875 v -1.058333 h 1.058333 z m 1.058334,3.175 H 19.05 V 25.4 H 17.991667 Z M 13.758333,28.575 H 12.7 11.641667 10.583333 9.525 v 1.058333 H 10.583333 11.641667 12.7 13.758333 Z M 12.7,26.458333 h -1.058333 v 1.058334 H 12.7 Z m -1.058333,0 V 25.4 h -1.058334 v -1.058333 h 1.058334 V 23.283333 H 10.583333 9.525 V 24.341667 25.4 26.458333 h 1.058333 z M 9.525,23.283333 V 22.225 H 8.4666667 7.4083333 v 1.058333 H 6.35 v 1.058334 H 7.4083333 V 25.4 H 6.35 v 1.058333 h 1.0583333 v 1.058334 H 6.35 5.2916667 V 28.575 H 6.35 7.4083333 8.4666667 V 27.516667 26.458333 25.4 24.341667 23.283333 Z M 5.2916667,28.575 H 4.2333333 v 1.058333 h 1.0583334 z m 2.1166666,-6.35 V 21.166667 H 6.35 V 22.225 Z M 6.35,21.166667 V 20.108333 H 5.2916667 4.2333333 v 1.058334 h 1.0583334 z m 0,-1.058334 H 7.4083333 V 19.05 H 6.35 Z M 6.35,19.05 V 17.991667 H 5.2916667 V 19.05 Z M 5.2916667,17.991667 V 16.933333 H 4.2333333 V 15.875 H 3.175 V 14.816667 H 4.2333333 V 13.758333 12.7 H 3.175 2.1166667 V 13.758333 14.816667 15.875 H 1.0583333 v 1.058333 1.058334 H 2.1166667 V 19.05 H 1.0583333 V 17.991667 H 0 V 19.05 20.108333 h 1.0583333 1.0583334 v 1.058334 H 3.175 V 20.108333 19.05 H 4.2333333 V 17.991667 Z M 1.0583333,15.875 V 14.816667 13.758333 H 0 V 14.816667 15.875 Z M 2.1166667,12.7 V 11.641667 H 1.0583333 0 V 12.7 h 1.0583333 z m 2.1166666,0 H 5.2916667 6.35 V 11.641667 H 7.4083333 V 10.583333 H 6.35 5.2916667 v 1.058334 H 4.2333333 Z M 5.2916667,10.583333 V 9.525 8.4666667 H 4.2333333 3.175 2.1166667 1.0583333 0 V 9.525 h 1.0583333 v 1.058333 H 2.1166667 3.175 V 9.525 h 1.0583333 v 1.058333 z M 6.35,12.7 v 1.058333 H 7.4083333 V 12.7 Z m 1.0583333,1.058333 v 1.058334 H 6.35 V 15.875 h 1.0583333 v 1.058333 H 6.35 v 1.058334 H 7.4083333 V 19.05 h 1.0583334 v 1.058333 H 9.525 V 19.05 17.991667 H 8.4666667 V 16.933333 15.875 H 9.525 10.583333 V 14.816667 13.758333 H 9.525 v 1.058334 H 8.4666667 v -1.058334 z m 3.1749997,0 H 11.641667 12.7 13.758333 14.816667 15.875 V 12.7 H 14.816667 13.758333 12.7 11.641667 V 11.641667 H 12.7 V 10.583333 H 11.641667 10.583333 V 11.641667 12.7 Z m 0,-3.175 V 9.525 H 9.525 v 1.058333 z m -1.058333,0 H 8.4666667 v 1.058334 H 9.525 Z M 9.525,9.525 V 8.4666667 H 8.4666667 7.4083333 6.35 V 9.525 h 1.0583333 1.0583334 z m 0,10.583333 v 1.058334 h 1.058333 v -1.058334 z m 1.058333,1.058334 V 22.225 H 11.641667 12.7 v -1.058333 -1.058334 h -1.058333 v 1.058334 z m 12.7,1.058333 h 1.058334 v -1.058333 h -1.058334 z m 0,-1.058333 V 20.108333 H 22.225 v 1.058334 z M 14.816667,16.933333 H 13.758333 V 17.991667 19.05 h 1.058334 v -1.058333 z m 0,-1.058333 V 14.816667 H 13.758333 12.7 11.641667 V 15.875 16.933333 17.991667 19.05 H 12.7 V 17.991667 16.933333 15.875 h 1.058333 z M 31.75,0 v 1.0583333 h 1.058333 V 0 Z m 1.05885,0 v 1.0583333 h 1.057817 V 2.1166667 H 34.925 V 1.0583333 0 h -1.058333 z m 1.057817,2.1166667 H 32.80885 V 3.175 h 1.057817 z m 0,1.0583333 V 4.2333333 H 32.80885 V 5.2916667 H 33.866667 34.925 V 4.2333333 3.175 Z M 35.98385,0 V 1.0583333 2.1166667 3.175 4.2333333 5.2916667 6.35 7.4083333 h 1.057817 V 6.35 5.2916667 4.2333333 3.175 2.1166667 1.0583333 0 Z m 1.058333,0 v 1.0583333 h 1.058334 1.058333 1.057817 V 0 H 39.15885 38.100517 Z m 3.175,0 v 1.0583333 h 1.058334 1.058333 V 2.1166667 3.175 4.2333333 5.2916667 6.35 h -1.058333 -1.058334 v 1.0583333 h 1.058334 1.058333 1.058333 V 6.35 5.2916667 4.2333333 3.175 2.1166667 1.0583333 0 H 42.33385 41.275517 Z M 1.0583333,1.0583333 H 2.1166667 3.175 4.2333333 5.2916667 6.35 V 2.1166667 3.175 4.2333333 5.2916667 6.35 H 5.2916667 4.2333333 3.175 2.1166667 1.0583333 V 5.2916667 4.2333333 3.175 2.1166667 Z M 2.1166667,2.1166667 V 3.175 4.2333333 5.2916667 H 3.175 4.2333333 5.2916667 V 4.2333333 3.175 2.1166667 H 4.2333333 3.175 Z m 35.9838503,0 V 3.175 4.2333333 5.2916667 h 1.058333 1.057817 V 4.2333333 3.175 2.1166667 H 39.15885 Z m 2.116666,0 V 3.175 4.2333333 5.2916667 h 1.058334 V 4.2333333 3.175 2.1166667 Z M 30.691667,3.175 V 4.2333333 H 29.63385 V 5.2916667 6.35 7.4083333 8.4666667 h 1.057817 V 7.4083333 6.35 H 31.75 v 1.0583333 h 1.058333 V 6.35 5.2916667 H 31.75 V 4.2333333 3.175 Z m 0,5.2916667 V 9.525 H 31.75 V 8.4666667 Z M 31.75,9.525 v 1.058333 h 1.058333 V 9.525 Z m -1.058333,0 H 29.63385 V 10.583333 11.641667 12.7 h 1.057817 v -1.058333 -1.058334 z m 0,3.175 v 1.058333 H 31.75 V 12.7 Z m 1.058333,0 h 1.058333 V 11.641667 H 31.75 Z m 0,1.058333 v 1.058334 h 1.058333 v -1.058334 z m -1.058333,0 H 29.63385 V 14.816667 15.875 h 1.057817 V 14.816667 Z M 33.866667,6.35 V 7.4083333 H 34.925 V 6.35 Z m 3.175516,0 v 1.0583333 h 1.058334 1.058333 1.057817 V 6.35 H 39.15885 38.100517 Z M 33.866667,8.4666667 V 9.525 H 32.80885 v 1.058333 h 1.057817 V 11.641667 12.7 13.758333 H 32.80885 v 1.058334 h 1.057817 V 15.875 16.933333 H 32.80885 V 17.991667 19.05 H 33.866667 34.925 V 17.991667 16.933333 15.875 14.816667 13.758333 12.7 11.641667 10.583333 9.525 8.4666667 Z m 1.05885,0 V 9.525 v 1.058333 1.058334 h 1.058333 v -1.058334 h 1.057817 V 9.525 H 35.98385 V 8.4666667 Z m 2.116666,0 V 9.525 v 1.058333 1.058334 h 1.058334 V 12.7 13.758333 h -1.058334 v 1.058334 1.058333 1.058333 h 1.058334 1.058333 1.057817 V 15.875 H 39.15885 v -1.058333 h 1.057817 V 13.758333 12.7 11.641667 H 39.15885 v -1.058334 h 1.057817 V 9.525 8.4666667 H 39.15885 V 9.525 H 38.100517 V 8.4666667 Z m 4.233334,0 V 9.525 10.583333 h 1.058333 1.058333 V 9.525 H 42.33385 V 8.4666667 Z M 15.875,9.525 h 1.058333 v 1.058333 H 15.875 Z m 26.45885,2.116667 V 12.7 v 1.058333 1.058334 h 1.058333 V 13.758333 12.7 11.641667 Z M 21.166667,12.7 H 22.225 23.283333 v 1.058333 H 22.225 21.166667 Z m 13.75885,0 v 1.058333 H 35.98385 V 12.7 Z m 1.058333,1.058333 v 1.058334 h 1.057817 V 13.758333 Z M 40.217183,12.7 v 1.058333 1.058334 1.058333 h 1.058334 V 14.816667 13.758333 12.7 Z m 1.058334,3.175 v 1.058333 H 42.33385 V 15.875 Z m 0,1.058333 h -1.058334 v 1.058334 h 1.058334 z m 0,1.058334 V 19.05 h 1.058333 1.058333 V 17.991667 H 42.33385 Z M 31.75,15.875 v 1.058333 h 1.058333 V 15.875 Z m 0,1.058333 H 30.691667 29.63385 V 17.991667 19.05 h 1.057817 V 17.991667 H 31.75 Z m 0,1.058334 V 19.05 20.108333 h 1.058333 V 19.05 17.991667 Z M 34.925517,15.875 v 1.058333 H 35.98385 V 15.875 Z m -13.75885,1.058333 H 22.225 v 1.058334 h -1.058333 z m 13.75885,1.058334 V 19.05 20.108333 H 35.98385 V 19.05 h 1.057817 V 17.991667 H 35.98385 Z m 1.058333,2.116666 v 1.058334 h 1.057817 v -1.058334 z m 1.058333,-2.116666 V 19.05 v 1.058333 1.058334 h 1.058334 1.058333 V 22.225 h -1.058333 v 1.058333 h 1.058333 v 1.058334 H 38.100517 V 25.4 h 1.058333 v 1.058333 h 1.057817 V 25.4 24.341667 23.283333 22.225 21.166667 20.108333 H 39.15885 38.100517 V 19.05 h 1.058333 v -1.058333 h -1.058333 z m 2.116667,8.466666 h -1.058333 -1.058334 v 1.058334 1.058333 1.058333 h 1.058334 V 28.575 27.516667 h 1.058333 z m 0,1.058334 V 28.575 h 1.057817 v -1.058333 z m -1.058333,-3.175 v -1.058334 h -1.058334 v 1.058334 z m -4.23385,-4.233334 v 1.058334 H 34.925 v -1.058334 z m 0,1.058334 H 32.80885 V 22.225 23.283333 h 1.057817 v 1.058334 H 32.80885 V 25.4 26.458333 27.516667 H 33.866667 34.925 V 26.458333 H 33.866667 V 25.4 H 34.925 V 24.341667 23.283333 22.225 h -1.058333 z m 8.467183,-1.058334 v 1.058334 h 1.058333 v -1.058334 z m 0,1.058334 H 41.275517 40.217183 V 22.225 h 1.058334 1.058333 z m 0,1.058333 v 1.058333 h 1.058333 V 22.225 Z M 0,21.166667 V 22.225 23.283333 24.341667 H 1.0583333 V 25.4 26.458333 h 1.0583334 v 1.058334 H 1.0583333 0 V 28.575 29.633333 H 1.0583333 2.1166667 V 28.575 H 3.175 V 27.516667 26.458333 25.4 H 2.1166667 V 24.341667 H 3.175 V 23.283333 H 4.2333333 V 22.225 H 3.175 2.1166667 v 1.058333 H 1.0583333 V 22.225 21.166667 Z m 4.2333333,2.116666 V 24.341667 25.4 H 5.2916667 V 24.341667 23.283333 Z M 30.691667,21.166667 V 22.225 H 31.75 V 21.166667 Z M 31.75,22.225 v 1.058333 H 30.691667 V 22.225 H 29.63385 v 1.058333 1.058334 H 30.691667 31.75 V 25.4 h -1.058333 v 1.058333 H 31.75 v 1.058334 h 1.058333 V 26.458333 25.4 24.341667 23.283333 22.225 Z m -1.058333,4.233333 H 29.63385 v 1.058334 h 1.057817 z M 34.925517,22.225 v 1.058333 h 1.058333 1.057817 V 22.225 H 35.98385 Z m 1.058333,2.116667 V 25.4 h 1.057817 v -1.058333 z m 5.291667,0 V 25.4 h -1.058334 v 1.058333 h 1.058334 v 1.058334 h 1.058333 1.058333 V 26.458333 25.4 H 42.33385 v -1.058333 z m 0,3.175 H 40.217183 V 28.575 h 1.058334 z m -6.35,-1.058334 v 1.058334 H 35.98385 V 28.575 29.633333 h 1.057817 V 28.575 27.516667 26.458333 H 35.98385 Z M 28.575,27.516667 V 28.575 h -1.058333 v 1.058333 H 28.575 29.633333 V 28.575 27.516667 Z M 19.05,28.575 v 1.058333 h 1.058333 V 28.575 Z m 10.58385,0 v 1.058333 h 1.057817 V 28.575 Z m 2.11615,0 v 1.058333 h 1.058333 V 28.575 Z m 10.58385,0 v 1.058333 h 1.058333 V 28.575 Z M 2.1166667,29.63385 v 1.057817 H 3.175 V 31.75 H 4.2333333 V 30.691667 H 5.2916667 6.35 7.4083333 V 31.75 H 8.4666667 9.525 10.583333 11.641667 V 30.691667 H 10.583333 9.525 8.4666667 V 29.63385 H 7.4083333 6.35 5.2916667 4.2333333 3.175 Z M 11.641667,31.75 v 1.058333 H 12.7 13.758333 V 31.75 H 12.7 Z m -4.2333337,0 H 6.35 5.2916667 4.2333333 v 1.058333 H 5.2916667 6.35 7.4083333 Z M 12.7,29.63385 v 1.057817 h 1.058333 V 29.63385 Z m 4.233333,0 V 30.691667 31.75 h 1.058334 V 30.691667 H 19.05 V 29.63385 H 17.991667 Z M 19.05,30.691667 V 31.75 32.808333 h 1.058333 V 31.75 h 1.058334 v 1.058333 H 22.225 23.283333 V 31.75 30.691667 H 22.225 21.166667 V 29.63385 h -1.058334 v 1.057817 z m 4.233333,0 h 1.058334 V 29.63385 h -1.058334 z m 1.058334,0 V 31.75 H 25.4 v -1.058333 z m 1.058333,0 h 1.058333 V 31.75 32.808333 H 27.516667 28.575 29.633333 V 31.75 H 28.575 27.516667 V 30.691667 H 28.575 29.633333 V 29.63385 H 28.575 27.516667 26.458333 25.4 Z M 16.933333,31.75 H 15.875 v 1.058333 h 1.058333 z M 30.691667,29.63385 V 30.691667 31.75 H 29.63385 v 1.058333 H 30.691667 31.75 V 31.75 h 1.058333 V 30.691667 H 31.75 V 29.63385 Z m 4.23385,0 V 30.691667 31.75 h 1.058333 1.057817 V 30.691667 H 35.98385 V 29.63385 Z m 2.116666,0 v 1.057817 h 1.058334 V 29.63385 Z m 1.058334,1.057817 V 31.75 h 1.058333 v -1.058333 z m 1.058333,0 h 1.057817 V 29.63385 H 39.15885 Z M 38.100517,31.75 h -1.058334 v 1.058333 h 1.058334 z m 2.116666,-2.11615 V 30.691667 31.75 h 1.058334 1.058333 1.058333 V 30.691667 29.63385 H 42.33385 v 1.057817 H 41.275517 V 29.63385 Z M 0,30.691667 V 31.75 32.808333 H 1.0583333 V 31.75 30.691667 Z m 32.80885,0 V 31.75 h 1.057817 v 1.058333 H 34.925 V 31.75 30.691667 H 33.866667 Z M 0,32.80885 V 33.866667 34.925 H 1.0583333 V 33.866667 32.80885 Z m 4.2333333,0 v 1.057817 H 3.175 2.1166667 V 34.925 H 3.175 4.2333333 5.2916667 V 33.866667 32.80885 Z m 6.3499997,0 V 33.866667 34.925 H 11.641667 12.7 V 33.866667 32.80885 h -1.058333 z m 5.291667,0 v 1.057817 H 14.816667 13.758333 V 34.925 h 1.058334 1.058333 1.058333 v -1.058333 h 1.058334 V 32.80885 h -1.058334 z m 2.116667,1.057817 V 34.925 H 19.05 v -1.058333 z m 1.058333,0 h 1.058333 V 32.80885 H 19.05 Z m 1.058333,0 V 34.925 h 1.058334 v -1.058333 z m 1.058334,0 H 22.225 V 34.925 h 1.058333 1.058334 V 33.866667 H 25.4 V 32.80885 H 24.341667 23.283333 22.225 21.166667 Z m 6.35,-1.057817 V 33.866667 34.925 H 28.575 V 33.866667 32.80885 Z m 2.117183,0 V 33.866667 34.925 H 30.691667 31.75 V 33.866667 H 30.691667 V 32.80885 Z M 31.75,33.866667 h 1.058333 V 32.80885 H 31.75 Z m 1.05885,-1.057817 v 1.057817 h 1.057817 V 32.80885 Z m 1.057817,1.057817 V 34.925 H 34.925 v -1.058333 z m 4.23385,-1.057817 v 1.057817 H 37.042183 V 34.925 h 1.058334 1.058333 V 33.866667 32.80885 Z M 6.35,33.866667 V 34.925 H 7.4083333 8.4666667 9.525 V 33.866667 H 8.4666667 7.4083333 Z m 28.575517,0 V 34.925 h 1.058333 1.057817 V 33.866667 H 35.98385 Z m 5.291666,0 V 34.925 h 1.058334 1.058333 v -1.058333 h -1.058333 z m -31.7505163,1.05885 v 1.058333 1.057817 H 9.525 10.583333 V 35.98385 H 9.525 V 34.925517 Z M 10.583333,35.98385 H 11.641667 12.7 v -1.058333 h -1.058333 -1.058334 z m 3.175,-1.058333 v 1.058333 1.057817 h 1.058334 1.058333 1.058333 1.058334 V 35.98385 34.925517 H 16.933333 V 35.98385 H 15.875 14.816667 v -1.058333 z m 6.35,0 v 1.058333 h 1.058334 v 1.057817 H 22.225 23.283333 24.341667 V 35.98385 H 25.4 V 34.925517 H 24.341667 23.283333 22.225 21.166667 Z m 6.35,0 v 1.058333 1.057817 H 27.516667 28.575 29.633333 V 35.98385 H 28.575 27.516667 v -1.058333 z m 3.175517,0 v 1.058333 1.057817 H 30.691667 31.75 V 35.98385 h 1.058333 V 34.925517 H 31.75 30.691667 Z m 3.175,0 v 1.058333 1.057817 H 33.866667 34.925 V 35.98385 34.925517 h -1.058333 z m 5.291667,0 v 1.058333 1.057817 H 39.15885 V 35.98385 34.925517 Z m 2.116666,0 v 1.058333 1.057817 h 1.058334 1.058333 V 35.98385 h 1.058333 V 34.925517 H 42.33385 41.275517 Z M 0,35.98385 v 1.057817 H 1.0583333 2.1166667 3.175 4.2333333 5.2916667 6.35 7.4083333 V 35.98385 H 6.35 5.2916667 4.2333333 3.175 2.1166667 1.0583333 Z m 35.98385,0 v 1.057817 h 1.057817 V 35.98385 Z M 0,37.042183 v 1.058334 1.058333 1.057817 H 1.0583333 V 39.15885 38.100517 37.042183 Z m 6.35,0 v 1.058334 1.058333 1.057817 H 7.4083333 V 39.15885 38.100517 37.042183 Z m 5.291667,0 v 1.058334 H 12.7 13.758333 14.816667 V 37.042183 H 13.758333 12.7 Z m 3.175,1.058334 V 39.15885 H 15.875 v -1.058333 z m 1.058333,0 h 1.058333 V 37.042183 H 15.875 Z m 1.058333,0 v 1.058333 1.057817 h 1.058334 V 39.15885 H 19.05 v 1.057817 h 1.058333 1.058334 V 39.15885 38.100517 H 22.225 23.283333 V 37.042183 H 22.225 21.166667 20.108333 v 1.058334 H 19.05 17.991667 Z m 6.35,0 v 1.058333 h 1.058334 v -1.058333 z m 1.058334,1.058333 v 1.057817 H 25.4 V 39.15885 Z m -1.058334,0 H 22.225 v 1.057817 h 1.058333 z M 11.641667,38.100517 H 10.583333 V 39.15885 H 9.525 V 38.100517 H 8.4666667 v 1.058333 1.057817 H 9.525 10.583333 11.641667 V 39.15885 Z M 25.4,37.042183 v 1.058334 h 1.058333 v -1.058334 z m 1.058333,1.058334 v 1.058333 h 1.058334 v -1.058333 z m 1.058334,0 H 28.575 29.633333 V 37.042183 H 28.575 27.516667 Z m 5.292183,-1.058334 v 1.058334 h 1.057817 V 39.15885 H 34.925 v -1.058333 -1.058334 h -1.058333 z m 5.291667,0 v 1.058334 h -1.058334 v 1.058333 h 1.058334 1.058333 v -1.058333 -1.058334 z m 1.058333,2.116667 v 1.057817 h 1.057817 V 39.15885 Z m 3.175,-2.116667 v 1.058334 h 1.058333 v -1.058334 z m 0,1.058334 h -1.058333 -1.058334 v 1.058333 h 1.058334 v 1.057817 H 42.33385 V 39.15885 Z m -40.2171833,0 v 1.058333 1.057817 H 3.175 4.2333333 5.2916667 V 39.15885 38.100517 H 4.2333333 3.175 Z m 28.5750003,0 V 39.15885 H 31.75 v -1.058333 z m 4.23385,0 v 1.058333 h 1.058333 1.057817 V 38.100517 H 35.98385 Z M 12.7,39.15885 v 1.057817 h 1.058333 V 39.15885 Z M 0,40.217183 v 1.058334 1.058333 1.058333 H 1.0583333 2.1166667 3.175 4.2333333 5.2916667 6.35 7.4083333 V 42.33385 41.275517 40.217183 H 6.35 v 1.058334 1.058333 H 5.2916667 4.2333333 3.175 2.1166667 1.0583333 v -1.058333 -1.058334 z m 2.1166667,0 v 1.058334 H 3.175 4.2333333 5.2916667 V 40.217183 H 4.2333333 3.175 Z m 6.35,0 v 1.058334 1.058333 1.058333 H 9.525 10.583333 V 42.33385 h 1.058334 v -1.058333 -1.058334 h -1.058334 v 1.058334 H 9.525 v -1.058334 z m 7.4083333,0 v 1.058334 h -1.058333 v 1.058333 h -1.058334 v 1.058333 H 14.816667 15.875 V 42.33385 h 1.058333 1.058334 V 41.275517 H 19.05 v 1.058333 h 1.058333 V 41.275517 40.217183 H 19.05 17.991667 16.933333 Z m 3.175,2.116667 h -1.058333 v 1.058333 H 19.05 Z m -5.291667,0 V 41.275517 H 12.7 v 1.058333 z m 7.408334,-2.116667 v 1.058334 1.058333 H 22.225 23.283333 24.341667 V 41.275517 H 23.283333 22.225 v -1.058334 z m 3.175,2.116667 v 1.058333 H 25.4 26.458333 27.516667 28.575 29.633333 V 42.33385 H 28.575 V 41.275517 H 27.516667 V 42.33385 H 26.458333 25.4 Z m 3.175,-1.058333 v -1.058334 h -1.058334 v 1.058334 z m 1.058333,0 h 1.058333 V 40.217183 H 28.575 Z m 2.116667,-1.058334 v 1.058334 H 31.75 v -1.058334 z m 2.117183,0 v 1.058334 h 1.057817 v -1.058334 z m 1.057817,1.058334 V 42.33385 H 34.925 v -1.058333 z m 0,1.058333 H 32.80885 v 1.058333 h 1.057817 z m 2.117183,-2.116667 v 1.058334 1.058333 h 1.057817 v -1.058333 -1.058334 z m 2.116667,0 v 1.058334 h 1.058333 v 1.058333 h 1.057817 V 41.275517 40.217183 H 39.15885 Z m 0,1.058334 h -1.058334 v 1.058333 1.058333 h 1.058334 V 42.33385 Z m 3.175,-1.058334 v 1.058334 1.058333 h 1.058333 v -1.058333 h 1.058333 V 40.217183 H 42.33385 Z m -10.58385,2.116667 v 1.058333 H 31.75 V 42.33385 Z"
     inkscape:power="50"
     inkscape:feed="50"
     inkscape:engrave="0" />
</svg>
